<svg width="16" height="16" viewBox="0 0 16 16" fill="none" xmlns="http://www.w3.org/2000/svg">
<path d="M13.969 7.21846C14.4518 7.21846 14.6533 6.59814 14.2611 6.31221L8.29396 1.97158C8.20874 1.90915 8.10585 1.87549 8.00021 1.87549C7.89457 1.87549 7.79168 1.90915 7.70646 1.97158L1.73927 6.31221C1.34708 6.59658 1.54865 7.21846 2.03302 7.21846H3.00021V13.0622H1.87521C1.80646 13.0622 1.75021 13.1185 1.75021 13.1872V13.9997C1.75021 14.0685 1.80646 14.1247 1.87521 14.1247H14.1252C14.194 14.1247 14.2502 14.0685 14.2502 13.9997V13.1872C14.2502 13.1185 14.194 13.0622 14.1252 13.0622H13.0002V7.21846H13.969ZM8.00021 3.07314L12.2361 6.15439H3.76427L8.00021 3.07314ZM4.12521 7.21846H5.95333V13.0622H4.12521V7.21846ZM7.07833 7.21846H8.90646V13.0622H7.07833V7.21846ZM11.8752 13.0622H10.0315V7.21846H11.8752V13.0622Z" fill="white" fill-opacity="0.65"/>
</svg>
