<svg width="16" height="16" viewBox="0 0 16 16" fill="none" xmlns="http://www.w3.org/2000/svg">
<path d="M8.37609 4.26563H7.62452C7.55577 4.26563 7.49952 4.32188 7.49952 4.39063V8.69219C7.49952 8.73282 7.51827 8.77032 7.55109 8.79375L10.1339 10.6797C10.1901 10.7203 10.2683 10.7094 10.3089 10.6531L10.7558 10.0438C10.798 9.98594 10.7855 9.90782 10.7292 9.86875L8.50109 8.25782V4.39063C8.50109 4.32188 8.44484 4.26563 8.37609 4.26563ZM11.8105 5.44063L14.2605 6.03906C14.3386 6.05781 14.4151 5.99844 14.4151 5.91875L14.4276 3.39531C14.4276 3.29063 14.3073 3.23125 14.2261 3.29688L11.7636 5.22031C11.745 5.23471 11.7308 5.25407 11.7227 5.27616C11.7146 5.29825 11.7129 5.32218 11.7178 5.3452C11.7227 5.36821 11.734 5.38938 11.7504 5.40626C11.7668 5.42314 11.7876 5.43505 11.8105 5.44063V5.44063ZM14.4308 10.1453L13.5448 9.84063C13.5139 9.83004 13.4801 9.83196 13.4506 9.84597C13.4212 9.85999 13.3983 9.88499 13.387 9.91563C13.3573 9.99532 13.3261 10.0734 13.2933 10.1516C13.0151 10.8094 12.6167 11.4016 12.1073 11.9094C11.6036 12.4147 11.0066 12.8174 10.3495 13.0953C9.66878 13.3831 8.93704 13.5309 8.19796 13.5297C7.45109 13.5297 6.72765 13.3844 6.0464 13.0953C5.38927 12.8174 4.7923 12.4147 4.28859 11.9094C3.78077 11.4016 3.38234 10.8094 3.10265 10.1516C2.81642 9.47045 2.66978 8.73882 2.6714 8C2.6714 7.25313 2.81671 6.52813 3.10577 5.84688C3.3839 5.18907 3.78234 4.59688 4.29171 4.08906C4.79543 3.58378 5.3924 3.18103 6.04952 2.90313C6.72765 2.61406 7.45265 2.46875 8.19952 2.46875C8.9464 2.46875 9.66984 2.61406 10.3511 2.90313C11.0082 3.18103 11.6052 3.58378 12.1089 4.08906C12.2683 4.25 12.4183 4.41719 12.5558 4.59375L13.4901 3.8625C12.2605 2.29063 10.3464 1.27969 8.1964 1.28125C4.45265 1.28281 1.4464 4.32344 1.4839 8.06875C1.5214 11.7484 4.51359 14.7188 8.19952 14.7188C11.098 14.7188 13.5667 12.8813 14.5073 10.3078C14.5308 10.2422 14.4964 10.1688 14.4308 10.1453V10.1453Z" fill="white" fill-opacity="0.65"/>
</svg>
