<svg width="15" height="14" viewBox="0 0 15 14" fill="none" xmlns="http://www.w3.org/2000/svg">
<g clip-path="url(#clip0_1219_32609)">
<rect width="14" height="14" transform="translate(0.5)" fill="white" fill-opacity="0.01"/>
<path d="M12.5312 1.53125H2.46875C2.22676 1.53125 2.03125 1.72676 2.03125 1.96875V12.0312C2.03125 12.2732 2.22676 12.4688 2.46875 12.4688H12.5312C12.7732 12.4688 12.9688 12.2732 12.9688 12.0312V1.96875C12.9688 1.72676 12.7732 1.53125 12.5312 1.53125ZM11.9844 7.875H7.71875V6.125H11.9844V7.875ZM11.9844 11.4844H3.01562V2.51562H11.9844V5.25H7.28125C7.03926 5.25 6.84375 5.44551 6.84375 5.6875V8.3125C6.84375 8.55449 7.03926 8.75 7.28125 8.75H11.9844V11.4844ZM8.42969 7C8.42969 7.14504 8.4873 7.28414 8.58986 7.3867C8.69242 7.48926 8.83152 7.54688 8.97656 7.54688C9.1216 7.54688 9.2607 7.48926 9.36326 7.3867C9.46582 7.28414 9.52344 7.14504 9.52344 7C9.52344 6.85496 9.46582 6.71586 9.36326 6.6133C9.2607 6.51074 9.1216 6.45312 8.97656 6.45312C8.83152 6.45312 8.69242 6.51074 8.58986 6.6133C8.4873 6.71586 8.42969 6.85496 8.42969 7Z" fill="white"/>
</g>
<defs>
<clipPath id="clip0_1219_32609">
<rect width="14" height="14" fill="white" transform="translate(0.5)"/>
</clipPath>
</defs>
</svg>
