<svg width="21" height="21" viewBox="0 0 21 21" fill="none" xmlns="http://www.w3.org/2000/svg">
<path d="M19.7728 13.0523L18.3016 11.7945C18.3712 11.3677 18.4072 10.932 18.4072 10.4962C18.4072 10.0605 18.3712 9.62476 18.3016 9.198L19.7728 7.94019C19.8838 7.84519 19.9632 7.71867 20.0005 7.57744C20.0378 7.43621 20.0312 7.28697 19.9817 7.14956L19.9615 7.09116C19.5564 5.95919 18.95 4.90984 18.1713 3.9938L18.1309 3.94663C18.0364 3.83557 17.9105 3.75573 17.7698 3.71764C17.6291 3.67955 17.4801 3.68499 17.3425 3.73325L15.5164 4.38237C14.8426 3.82983 14.0902 3.39409 13.2771 3.08862L12.9244 1.17944C12.8978 1.03579 12.8282 0.903629 12.7246 0.800522C12.6211 0.697416 12.4887 0.628245 12.345 0.602197L12.2843 0.590967C11.1141 0.379834 9.88323 0.379834 8.71302 0.590967L8.65238 0.602197C8.50862 0.628245 8.37619 0.697416 8.27268 0.800522C8.16917 0.903629 8.09949 1.03579 8.07288 1.17944L7.718 3.09761C6.9114 3.40314 6.16026 3.83865 5.49437 4.38686L3.65482 3.73325C3.51728 3.68461 3.36819 3.67897 3.22737 3.71708C3.08655 3.75519 2.96067 3.83526 2.86644 3.94663L2.82601 3.9938C2.04829 4.91048 1.44191 5.95966 1.03587 7.09116L1.01566 7.14956C0.914583 7.43032 0.997688 7.74478 1.22454 7.94019L2.7137 9.21147C2.64407 9.63374 2.61038 10.065 2.61038 10.494C2.61038 10.9252 2.64407 11.3565 2.7137 11.7765L1.22454 13.0478C1.11358 13.1428 1.03416 13.2693 0.996844 13.4106C0.959531 13.5518 0.966092 13.701 1.01566 13.8384L1.03587 13.8968C1.44241 15.0289 2.04437 16.0733 2.82601 16.9942L2.86644 17.0414C2.9609 17.1524 3.08679 17.2323 3.22753 17.2704C3.36826 17.3084 3.51724 17.303 3.65482 17.2547L5.49437 16.6011C6.1637 17.1514 6.91165 17.5872 7.718 17.8904L8.07288 19.8085C8.09949 19.9522 8.16917 20.0844 8.27268 20.1875C8.37619 20.2906 8.50862 20.3597 8.65238 20.3858L8.71302 20.397C9.89399 20.6093 11.1033 20.6093 12.2843 20.397L12.345 20.3858C12.4887 20.3597 12.6211 20.2906 12.7246 20.1875C12.8282 20.0844 12.8978 19.9522 12.9244 19.8085L13.2771 17.8994C14.0898 17.5947 14.8465 17.1575 15.5164 16.6056L17.3425 17.2547C17.48 17.3034 17.6291 17.309 17.77 17.2709C17.9108 17.2328 18.0367 17.1527 18.1309 17.0414L18.1713 16.9942C18.953 16.071 19.5549 15.0289 19.9615 13.8968L19.9817 13.8384C20.0827 13.5622 19.9996 13.2477 19.7728 13.0523V13.0523ZM16.7069 9.46304C16.763 9.8022 16.7922 10.1503 16.7922 10.4985C16.7922 10.8466 16.763 11.1948 16.7069 11.5339L16.5586 12.4346L18.2365 13.8699C17.9821 14.4559 17.661 15.0106 17.2796 15.523L15.1952 14.784L14.49 15.3635C13.9532 15.8038 13.3557 16.1497 12.7088 16.3922L11.8531 16.7134L11.451 18.8921C10.8166 18.964 10.1762 18.964 9.54183 18.8921L9.13978 16.7089L8.29075 16.3833C7.65062 16.1407 7.0554 15.7948 6.52308 15.3568L5.81781 14.775L3.71995 15.5208C3.33812 15.0064 3.01917 14.4516 2.76312 13.8676L4.45892 12.4189L4.31292 11.5205C4.25902 11.1858 4.22982 10.8399 4.22982 10.4985C4.22982 10.1548 4.25677 9.81118 4.31292 9.47651L4.45892 8.57808L2.76312 7.12935C3.01693 6.54312 3.33812 5.99058 3.71995 5.47622L5.81781 6.22192L6.52308 5.64019C7.0554 5.2022 7.65062 4.8563 8.29075 4.61372L9.14202 4.29253L9.54407 2.10933C10.1752 2.03745 10.8199 2.03745 11.4533 2.10933L11.8553 4.28804L12.7111 4.60923C13.3557 4.85181 13.9554 5.19771 14.4922 5.63794L15.1975 6.21743L17.2819 5.47847C17.6637 5.99282 17.9826 6.54761 18.2387 7.13159L16.5609 8.56685L16.7069 9.46304ZM10.5009 6.32075C8.31771 6.32075 6.54779 8.09067 6.54779 10.2739C6.54779 12.4571 8.31771 14.227 10.5009 14.227C12.6841 14.227 14.454 12.4571 14.454 10.2739C14.454 8.09067 12.6841 6.32075 10.5009 6.32075ZM12.2798 12.0528C12.0465 12.2868 11.7692 12.4723 11.4639 12.5988C11.1586 12.7252 10.8313 12.79 10.5009 12.7895C9.82933 12.7895 9.19818 12.5267 8.722 12.0528C8.48801 11.8195 8.30246 11.5422 8.17603 11.2369C8.0496 10.9316 7.98477 10.6043 7.98529 10.2739C7.98529 9.60229 8.24808 8.97114 8.722 8.49497C9.19818 8.0188 9.82933 7.75825 10.5009 7.75825C11.1725 7.75825 11.8036 8.0188 12.2798 8.49497C12.5138 8.72829 12.6994 9.00557 12.8258 9.31087C12.9522 9.61616 13.017 9.94344 13.0165 10.2739C13.0165 10.9455 12.7537 11.5766 12.2798 12.0528Z" fill="white" fill-opacity="0.65"/>
</svg>
