<svg width="12" height="8" viewBox="0 0 12 8" fill="none" xmlns="http://www.w3.org/2000/svg">
<path d="M11.1743 7.32637L6.35362 0.680469C6.17862 0.439844 5.82042 0.439844 5.64679 0.680469L0.824715 7.32637C0.812848 7.34271 0.805739 7.36202 0.804176 7.38216C0.802613 7.4023 0.806657 7.42248 0.81586 7.44046C0.825062 7.45844 0.839064 7.47352 0.856313 7.48403C0.873561 7.49454 0.893384 7.50007 0.913582 7.5H1.93897C2.0087 7.5 2.07432 7.46582 2.11534 7.40977L5.99952 2.05586L9.8837 7.40977C9.92471 7.46582 9.99034 7.5 10.0601 7.5H11.0855C11.1743 7.5 11.2263 7.39883 11.1743 7.32637V7.32637Z" fill="white"/>
</svg>
