<svg width="16" height="16" viewBox="0 0 16 16" fill="none" xmlns="http://www.w3.org/2000/svg">
<path d="M13.75 1.75H2.25C1.97344 1.75 1.75 1.97344 1.75 2.25V13.75C1.75 14.0266 1.97344 14.25 2.25 14.25H13.75C14.0266 14.25 14.25 14.0266 14.25 13.75V2.25C14.25 1.97344 14.0266 1.75 13.75 1.75ZM13.125 9H8.25V7H13.125V9ZM13.125 13.125H2.875V2.875H13.125V6H7.75C7.47344 6 7.25 6.22344 7.25 6.5V9.5C7.25 9.77656 7.47344 10 7.75 10H13.125V13.125ZM9.0625 8C9.0625 8.16576 9.12835 8.32473 9.24556 8.44194C9.36277 8.55915 9.52174 8.625 9.6875 8.625C9.85326 8.625 10.0122 8.55915 10.1294 8.44194C10.2467 8.32473 10.3125 8.16576 10.3125 8C10.3125 7.83424 10.2467 7.67527 10.1294 7.55806C10.0122 7.44085 9.85326 7.375 9.6875 7.375C9.52174 7.375 9.36277 7.44085 9.24556 7.55806C9.12835 7.67527 9.0625 7.83424 9.0625 8Z" fill="white" fill-opacity="0.65"/>
</svg>
